{"title":"Special Female Force (2016) 720p Unrated BRRIP Hindi-Dubbed x264","magnet":"magnet:?xt=urn:btih:52d5b1d59eb5013a6fb21aeb752eb2b0d93e0a74&dn=Special+Female+Force+%282016%29+720p+Unrated+BRRIP+Hindi-Dubbed+x264&tr=udp%3A%2F%2Ftracker.leechers-paradise.org%3A6969&tr=udp%3A%2F%2Fzer0day.ch%3A1337&tr=udp%3A%2F%2Fopen.demonii.com%3A1337&tr=udp%3A%2F%2Ftracker.coppersurfer.tk%3A6969&tr=udp%3A%2F%2Fexodus.desync.com%3A6969","uploader":"sinsily","categoryP":"video","categoryS":"movies","size":"784482961","seeders":"64","leechers":"40","description":"Special Female Force (2016)\r\n20 November 2016 (China) \r\n\r\n25 years ago, a group of female agents went undercover in a five-star hotel in Bangkok to investigate international terrorist, Gu Zhi Jin. An accidental explosion at the hotel killed many of the agents except the leader, Madam Fong, and the target. In present time, Madam Fong meets a group of girls and trains them as her apprentices. She is now on a mission to capture the terrorist she missed 25 years ago. \r\n\r\nFormat : Matroska\r\nFormat version : Version 4 / Version 2\r\nFile size : 748 MiB\r\nDuration : 1 h 42 min\r\nOverall bit rate : 1 024 kb/s\r\n\r\nVideo\r\nID : 1\r\nFormat : AVC\r\nFormat/Info : Advanced Video Codec\r\nFormat profile : <a class=\"__cf_email__\" href=\"/cdn-cgi/l/email-protection\" data-cfemail=\"90d8f9f7f8d0dca4bea1\">[email&#xA0;protected]</a><script data-cfhash=\"f9e31\" type=\"text/javascript\">/* <![CDATA[ */!function(t,e,r,n,c,a,p){try{t=document.currentScript||function(){for(t=document.getElementsByTagName('script'),e=t.length;e--;)if(t[e].getAttribute('data-cfhash'))return t[e]}();if(t&&(c=t.previousSibling)){p=t.parentNode;if(a=c.getAttribute('data-cfemail')){for(e='',r='0x'+a.substr(0,2)|0,n=2;a.length-n;n+=2)e+='%'+('0'+('0x'+a.substr(n,2)^r).toString(16)).slice(-2);p.replaceChild(document.createTextNode(decodeURIComponent(e)),c)}p.removeChild(t)}}catch(u){}}()/* ]]> */</script>\r\nFormat settings, CABAC : Yes\r\nFormat settings, ReFrames : 5 frames\r\nCodec ID : V_MPEG4/ISO/AVC\r\nDuration : 1 h 42 min\r\nBit rate : 893 kb/s\r\nWidth : 1 280 pixels\r\nHeight : 546 pixels\r\nDisplay aspect ratio : 2.35:1\r\nFrame rate mode : Constant\r\nFrame rate : 24.000 FPS\r\nColor space : YUV\r\nChroma subsampling : 4:2:0\r\nBit depth : 8 bits\r\nScan type : Progressive\r\nBits/(Pixel*Frame) : 0.053\r\nStream size : 652 MiB (87%)\r\nWriting library : x264 core 148 r2638 7599210\r\nDefault : Yes\r\nForced : No\r\n\r\nAudio\r\nID : 2\r\nFormat : AAC\r\nFormat/Info : Advanced Audio Codec\r\nFormat profile : LC\r\nCodec ID : A_AAC\r\nDuration : 1 h 42 min\r\nBit rate : 129 kb/s\r\nChannel(s) : 2 channels\r\nChannel positions : Front: L R\r\nLanguage : Hindi\r\nDefault : Yes\r\nForced : No\r\n\r\nText\r\nID : 3\r\nFormat : UTF-8\r\nCodec ID : S_TEXT/UTF8\r\nCodec ID/Info : UTF-8 Plain Text\r\nDuration : 1 h 38 min\r\nBit rate : 47 b/s\r\nCount of elements : 1319\r\nStream size : 34.0 KiB (0%)\r\nDefault : Yes\r\nForced : No","last_updated":"2017-06-09T12:00:36.131Z","parsed":{"xt":"urn:btih:52d5b1d59eb5013a6fb21aeb752eb2b0d93e0a74","dn":"Special Female Force (2016) 720p Unrated BRRIP Hindi-Dubbed x264","tr":["udp://exodus.desync.com:6969","udp://open.demonii.com:1337","udp://tracker.coppersurfer.tk:6969","udp://tracker.leechers-paradise.org:6969","udp://zer0day.ch:1337"],"infoHash":"52d5b1d59eb5013a6fb21aeb752eb2b0d93e0a74","infoHashBuffer":{"type":"Buffer","data":[82,213,177,213,158,181,1,58,111,178,26,235,117,46,178,176,217,62,10,116]},"name":"Special Female Force (2016) 720p Unrated BRRIP Hindi-Dubbed x264","announce":["udp://exodus.desync.com:6969","udp://open.demonii.com:1337","udp://tracker.coppersurfer.tk:6969","udp://tracker.leechers-paradise.org:6969","udp://zer0day.ch:1337"],"urlList":[]}}